<?xml version="1.0" encoding="UTF-8" standalone="no"?>
<svg xmlns="http://www.w3.org/2000/svg" xmlns:xlink="http://www.w3.org/1999/xlink" xmlns:jitters="http://www.semicolonproductions.com/jitters" viewBox="0.000000 0.000000 350.000000 520.000000" jitters:gridMajorXSpacing="7.2" jitters:gridMajorYSpacing="7.2" jitters:gridActive="false" jitters:gridMinorXSpacing="0" jitters:gridMinorYSpacing="0" jitters:gridMinorActive="false" jitters:gridXOffset="0" jitters:gridYOffset="0" width="0.35in" height="0.52in">
    <defs/>
    <g visibility="visible" id="breadboard" jitters:groupType="layer" jitters:effect="none">
        <g id="DIL Package">
            <rect x="0" y="10" width="350" height="500" rx="0" ry="0" fill="#64aadc" fill-opacity="1" stroke-width="1" stroke-linecap="butt" stroke-linejoin="miter" stroke-miterlimit="4" stroke-dasharray="" stroke-dashoffset="0" stroke="none" id="mounting board"/>
            <rect x="0" y="440" width="40" height="80" rx="0" ry="0" fill="#8c8c8c" fill-opacity="1" stroke-width="17.9038982391357" stroke-linecap="butt" stroke-linejoin="miter" stroke-miterlimit="4" stroke-dasharray="" stroke-dashoffset="0" stroke="none" id="connector0pin"/>
            <rect x="0" y="480" width="40" height="40" rx="0" ry="0" fill="#8c8c8c" fill-opacity="1" stroke-width="10.8227434158325" stroke-linecap="butt" stroke-linejoin="miter" stroke-miterlimit="4" stroke-dasharray="" stroke-dashoffset="0" stroke="none" id="connector0terminal"/>
            <rect x="105" y="440" width="40" height="80" rx="0" ry="0" fill="#8c8c8c" fill-opacity="1" stroke-width="14.291259765625" stroke-linecap="butt" stroke-linejoin="miter" stroke-miterlimit="4" stroke-dasharray="" stroke-dashoffset="0" stroke="none" id="connector1pin"/>
            <rect x="105" y="480" width="40" height="40" rx="0" ry="0" fill="#8c8c8c" fill-opacity="1" stroke-width="8.63893604278564" stroke-linecap="butt" stroke-linejoin="miter" stroke-miterlimit="4" stroke-dasharray="" stroke-dashoffset="0" stroke="none" id="connector1terminal"/>
            <rect x="210" y="440" width="40" height="80" rx="0" ry="0" fill="#8c8c8c" fill-opacity="1" stroke-width="14.291259765625" stroke-linecap="butt" stroke-linejoin="miter" stroke-miterlimit="4" stroke-dasharray="" stroke-dashoffset="0" stroke="none" id="connector2pin"/>
            <rect x="210" y="480" width="40" height="40" rx="0" ry="0" fill="#8c8c8c" fill-opacity="1" stroke-width="8.63893604278564" stroke-linecap="butt" stroke-linejoin="miter" stroke-miterlimit="4" stroke-dasharray="" stroke-dashoffset="0" stroke="none" id="connector2terminal"/>
            <rect x="310" y="440" width="40" height="80" rx="0" ry="0" fill="#8c8c8c" fill-opacity="1" stroke-width="14.291259765625" stroke-linecap="butt" stroke-linejoin="miter" stroke-miterlimit="4" stroke-dasharray="" stroke-dashoffset="0" stroke="none" id="connector3pin"/>
            <rect x="310" y="480" width="40" height="40" rx="0" ry="0" fill="#8c8c8c" fill-opacity="1" stroke-width="8.63893604278564" stroke-linecap="butt" stroke-linejoin="miter" stroke-miterlimit="4" stroke-dasharray="" stroke-dashoffset="0" stroke="none" id="connector3terminal"/>
            <rect x="310" y="0" width="40" height="80" rx="0" ry="0" fill="#8c8c8c" fill-opacity="1" stroke-width="14.291259765625" stroke-linecap="butt" stroke-linejoin="miter" stroke-miterlimit="4" stroke-dasharray="" stroke-dashoffset="0" stroke="none" id="connector4pin"/>
            <rect x="310" y="0" width="40" height="40" rx="0" ry="0" fill="#8c8c8c" fill-opacity="1" stroke-width="8.63893604278564" stroke-linecap="butt" stroke-linejoin="miter" stroke-miterlimit="4" stroke-dasharray="" stroke-dashoffset="0" stroke="none" id="connector4terminal"/>
            <rect x="210" y="0" width="40" height="80" rx="0" ry="0" fill="#8c8c8c" fill-opacity="1" stroke-width="14.291259765625" stroke-linecap="butt" stroke-linejoin="miter" stroke-miterlimit="4" stroke-dasharray="" stroke-dashoffset="0" stroke="none" id="connector5pin"/>
            <rect x="210" y="0" width="40" height="40" rx="0" ry="0" fill="#8c8c8c" fill-opacity="1" stroke-width="8.63893604278564" stroke-linecap="butt" stroke-linejoin="miter" stroke-miterlimit="4" stroke-dasharray="" stroke-dashoffset="0" stroke="none" id="connector5terminal"/>
            <rect x="105" y="0" width="40" height="80" rx="0" ry="0" fill="#8c8c8c" fill-opacity="1" stroke-width="14.291259765625" stroke-linecap="butt" stroke-linejoin="miter" stroke-miterlimit="4" stroke-dasharray="" stroke-dashoffset="0" stroke="none" id="connector6pin"/>
            <rect x="105" y="0" width="40" height="40" rx="0" ry="0" fill="#8c8c8c" fill-opacity="1" stroke-width="8.63893604278564" stroke-linecap="butt" stroke-linejoin="miter" stroke-miterlimit="4" stroke-dasharray="" stroke-dashoffset="0" stroke="none" id="connector6terminal"/>
            <rect x="0" y="0" width="40" height="80" rx="0" ry="0" fill="#8c8c8c" fill-opacity="1" stroke-width="14.291259765625" stroke-linecap="butt" stroke-linejoin="miter" stroke-miterlimit="4" stroke-dasharray="" stroke-dashoffset="0" stroke="none" id="connector7pin"/>
            <rect x="0" y="0" width="40" height="40" rx="0" ry="0" fill="#8c8c8c" fill-opacity="1" stroke-width="8.63893604278564" stroke-linecap="butt" stroke-linejoin="miter" stroke-miterlimit="4" stroke-dasharray="" stroke-dashoffset="0" stroke="none" id="connector7terminal"/>
        </g>
        <g id="Sensor Casing">
            <rect x="10.0865659713745" y="153.386199951172" width="331.785858154297" height="233.199615478516" rx="0" ry="0" fill="#3e3e3e" fill-opacity="1" stroke-width="7.34983968734741" stroke-linecap="butt" stroke-linejoin="miter" stroke-miterlimit="4" stroke-dasharray="" stroke-dashoffset="0" stroke="none" id="circuit cover"/>
            <ellipse cx="174.503433227539" cy="271.501373291016" rx="74.9280242919922" ry="76.4358139038086" fill="#5e5e5e" fill-opacity="1" stroke-width="26.5225448608398" stroke-linecap="butt" stroke-linejoin="miter" stroke-miterlimit="4" stroke-dasharray="" stroke-dashoffset="0" stroke="none" id="barb"/>
            <ellipse cx="174.503433227539" cy="271.501373291016" rx="38.103157043457" ry="38.8699111938477" fill="#212121" fill-opacity="1" stroke-width="26.5225448608398" stroke-linecap="butt" stroke-linejoin="miter" stroke-miterlimit="4" stroke-dasharray="" stroke-dashoffset="0" stroke="none" id="vent"/>
            <ellipse cx="30.6159133911133" cy="360.526672363281" rx="9.70221900939941" ry="9.89745807647705" fill="#212121" fill-opacity="1" stroke-width="6.75344371795654" stroke-linecap="butt" stroke-linejoin="miter" stroke-miterlimit="4" stroke-dasharray="" stroke-dashoffset="0" stroke="none" id="pin1 indicator"/>
            <path d="M 303.690041 178.570450 L 322.239428 178.570450 C 323.116623 178.570450 323.876135 178.901607 324.517986 179.563929C 325.159836 180.226251 325.480757 181.009988 325.480757 181.915161L 325.480756 191.717480 C 325.480756 192.600577 325.159835 193.378793 324.517985 194.052154C 323.876135 194.725515 323.116623 195.062190 322.239427 195.062190L 303.690040 195.062190 C 302.812844 195.062190 302.053333 194.725514 301.411482 194.052153C 300.769632 193.378792 300.448711 192.600576 300.448711 191.717479L 300.448712 181.915160 C 300.448712 181.009986 300.769633 180.226250 301.411483 179.563928C 302.053333 178.901606 302.812845 178.570450 303.690041 178.570450Z M 303.690040 181.915160 L 303.690040 191.717479 L 322.239427 191.717480 L 322.239428 181.915161 L 303.690040 181.915160 Z M 303.690040 202.513276 L 322.239427 202.513277 C 323.116622 202.513277 323.876134 202.844433 324.517984 203.506756C 325.159835 204.169078 325.480756 204.952814 325.480756 205.857988L 325.480755 215.660307 C 325.480755 216.543403 325.159834 217.321620 324.517984 217.994981C 323.876133 218.668342 323.116622 219.005017 322.239426 219.005017L 303.690040 219.005016 C 302.812843 219.005016 302.053331 218.668341 301.411481 217.994979C 300.769631 217.321618 300.448711 216.543401 300.448711 215.660306L 300.448711 205.857987 C 300.448711 204.952813 300.769632 204.169077 301.411482 203.506754C 302.053332 202.844432 302.812844 202.513276 303.690040 202.513276Z M 303.690040 205.857987 L 303.690040 215.660306 L 322.239426 215.660307 L 322.239427 205.857988 L 303.690040 205.857987 Z M 303.433300 226.456103 C 303.882595 226.456103 304.262351 226.616162 304.572579 226.936284C 304.882807 227.256406 305.037918 227.648275 305.037918 228.111900C 305.037918 228.376829 304.995129 228.597600 304.909548 228.774219L 303.690039 231.754654 L 303.690039 239.603132 L 311.360114 239.603132 L 311.360114 229.734581 L 325.480754 229.734582 L 325.480754 241.258930 C 325.480754 241.722555 325.320294 242.119943 324.999368 242.451104C 324.678443 242.782266 324.304036 242.947843 323.876136 242.947843C 323.426840 242.947843 323.041735 242.782265 322.720810 242.451104C 322.399885 242.119943 322.239425 241.722555 322.239425 241.258930L 322.239425 233.079292 L 314.601443 233.079291 L 314.601443 239.603132 C 314.601443 240.486229 314.275174 241.264446 313.622625 241.937806C 312.970077 242.611167 312.215914 242.947843 311.360114 242.947843L 303.690039 242.947842 C 302.812842 242.947842 302.053331 242.611166 301.411480 241.937806C 300.769630 241.264445 300.448710 240.486228 300.448710 239.603132L 300.448710 232.085813 C 300.448710 231.644265 300.502197 231.197204 300.609172 230.744617C 300.716146 230.292030 300.828469 229.922239 300.946141 229.635233C 301.063814 229.348227 301.234972 228.961878 301.459619 228.476175C 301.684267 227.990473 301.839378 227.648277 301.924959 227.449581C 302.203094 226.787259 302.705869 226.456103 303.433300 226.456103Z M 302.085420 250.398929 L 325.480754 250.398930 L 325.480753 261.857046 C 325.480753 263.225845 325.004721 264.406969 324.052642 265.400452C 323.100564 266.393935 321.961297 266.890669 320.634806 266.890669L 314.858180 266.890669 C 313.531689 266.890669 312.387073 266.393935 311.424297 265.400451C 310.461522 264.406968 309.980141 263.225845 309.980141 261.857045L 309.980141 253.743640 L 302.085420 253.743640 C 301.636124 253.743640 301.251020 253.578062 300.930094 253.246900C 300.609169 252.915739 300.448709 252.518352 300.448709 252.054726C 300.448709 251.591101 300.609169 251.199233 300.930095 250.879110C 301.251020 250.558988 301.636124 250.398929 302.085420 250.398929Z M 313.221470 253.743640 L 313.221470 261.857045 C 313.221470 262.298594 313.381930 262.690462 313.702855 263.032662C 314.023780 263.374862 314.408885 263.545959 314.858181 263.545959L 320.634806 263.545959 C 321.062707 263.545959 321.437114 263.374862 321.758039 263.032663C 322.078964 262.690463 322.239424 262.298594 322.239424 261.857046L 322.239425 253.743641 L 313.221470 253.743640 Z M 305.326748 274.341756 L 314.023778 274.341756 C 315.500034 274.341756 316.815808 274.805375 317.971139 275.732626L 323.619395 280.236394 C 324.860306 281.229878 325.480752 282.554502 325.480752 284.210307L 325.480752 289.144583 C 325.480752 289.608209 325.320292 290.005596 324.999367 290.336757C 324.678441 290.667918 324.304034 290.833496 323.876134 290.833496C 323.426838 290.833496 323.041734 290.667918 322.720808 290.336757C 322.399883 290.005596 322.239423 289.608209 322.239423 289.144582L 322.239423 284.210307 C 322.239423 283.658373 322.025476 283.216831 321.597576 282.885669L 316.013505 278.381901 C 315.414444 277.918276 314.751209 277.686466 314.023778 277.686466L 305.326748 277.686466 C 304.877452 277.686466 304.492347 277.852044 304.171422 278.183205C 303.850497 278.514366 303.690037 278.900715 303.690037 279.342263L 303.690037 285.799872 C 303.690037 286.241420 303.850497 286.633288 304.171422 286.975488C 304.492347 287.317687 304.877452 287.488785 305.326747 287.488785L 308.632261 287.488786 L 308.632261 284.210307 C 308.632261 283.746681 308.787373 283.354814 309.097600 283.034691C 309.407828 282.714568 309.787583 282.554509 310.236879 282.554509C 310.686174 282.554509 311.071279 282.714568 311.392204 283.034691C 311.713129 283.354814 311.873590 283.746681 311.873590 284.210307L 311.873589 290.833495 L 305.326747 290.833495 C 304.000256 290.833495 302.855639 290.336761 301.892864 289.343278C 300.930089 288.349795 300.448708 287.168671 300.448708 285.799872L 300.448708 279.342263 C 300.448708 277.951386 300.924740 276.770263 301.876819 275.798857C 302.828897 274.827451 303.978862 274.341756 305.326748 274.341756Z M 304.781176 298.284583 C 305.230472 298.284583 305.615576 298.444641 305.936501 298.764763C 306.257427 299.084886 306.417887 299.476754 306.417887 299.940380C 306.417887 300.404005 306.257427 300.801392 305.936501 301.132553C 305.615576 301.463714 305.230472 301.629292 304.781176 301.629292C 304.481646 301.629292 304.224909 301.739678 304.010959 301.960452C 303.797010 302.181226 303.690036 302.446151 303.690036 302.755234L 303.690036 311.001104 C 303.690035 311.288111 303.829101 311.431611 304.107236 311.431611L 319.575756 299.046249 C 320.260397 298.538469 321.009211 298.284583 321.822222 298.284583L 321.918499 298.284583 C 322.881275 298.284583 323.715668 298.654374 324.421703 299.393968C 325.127739 300.133561 325.480751 301.011124 325.480751 302.026684L 325.480751 310.272554 C 325.480751 311.486812 325.052857 312.540992 324.197056 313.435126C 323.341256 314.329262 322.325008 314.776323 321.148281 314.776323C 320.698986 314.776323 320.313882 314.610744 319.992957 314.279584C 319.672031 313.948422 319.511571 313.551035 319.511571 313.087409C 319.511571 312.623784 319.672031 312.231915 319.992957 311.911793C 320.313882 311.591671 320.698986 311.431612 321.148282 311.431612C 321.426417 311.431612 321.677804 311.315708 321.902453 311.083895C 322.127100 310.852082 322.239422 310.581638 322.239422 310.272554L 322.239422 302.026684 C 322.239422 301.761756 322.132449 301.629293 321.918499 301.629293L 321.822222 301.629293 L 321.693853 301.629293 L 306.353702 313.948423 C 305.711851 314.500358 304.963037 314.776322 304.107236 314.776322C 303.101670 314.732167 302.240534 314.351338 301.523801 313.633821C 300.807068 312.916305 300.448707 312.038742 300.448707 311.001104L 300.448707 302.755234 C 300.448707 301.540977 300.876601 300.492316 301.732402 299.609220C 302.588202 298.726124 303.604450 298.284583 304.781176 298.284583Z M 302.085417 322.128061 L 324.325425 328.850598 C 324.667746 328.960985 324.945877 329.159679 325.159826 329.446685C 325.373776 329.733692 325.480750 330.064848 325.480750 330.440164C 325.480750 330.815479 325.373776 331.157674 325.159826 331.466757C 324.945877 331.775842 324.667746 331.974535 324.325425 332.062845L 302.085416 338.752264 C 301.636120 338.752264 301.251016 338.581167 300.930091 338.238967C 300.609165 337.896767 300.448705 337.493860 300.448705 337.030235C 300.448705 336.654919 300.555679 336.323763 300.769629 336.036757C 300.983580 335.749751 301.261711 335.551057 301.604030 335.440670L 305.904408 334.149148 L 305.904408 326.764293 L 301.604031 325.472771 C 301.261711 325.362384 300.983580 325.158171 300.769629 324.860126C 300.555680 324.562081 300.448706 324.225405 300.448706 323.850090C 300.448706 323.386464 300.609166 322.983558 300.930091 322.641358C 301.251016 322.299158 301.636121 322.128061 302.085417 322.128061Z M 309.145737 327.757771 L 309.145736 333.155670 L 318.067414 330.440163 L 309.145737 327.757771 Z M 303.433295 346.170235 C 303.882591 346.170235 304.262346 346.330294 304.572574 346.650417C 304.882801 346.970538 305.037913 347.362407 305.037913 347.826032C 305.037913 348.090961 304.995124 348.311732 304.909544 348.488351L 303.690034 351.468786 L 303.690033 359.317264 L 311.360108 359.317264 L 311.360109 349.448714 L 325.480749 349.448714 L 325.480748 360.973062 C 325.480748 361.436688 325.320288 361.834075 324.999363 362.165236C 324.678438 362.496398 324.304031 362.661976 323.876130 362.661976C 323.426835 362.661976 323.041731 362.496398 322.720806 362.165236C 322.399880 361.834075 322.239420 361.436688 322.239420 360.973062L 322.239420 352.793425 L 314.601438 352.793425 L 314.601437 359.317264 C 314.601437 360.200361 314.275168 360.978578 313.622620 361.651939C 312.970072 362.325300 312.215909 362.661975 311.360108 362.661975L 303.690033 362.661975 C 302.812838 362.661975 302.053326 362.325300 301.411476 361.651938C 300.769625 360.978577 300.448704 360.200360 300.448704 359.317264L 300.448705 351.799946 C 300.448705 351.358397 300.502192 350.911336 300.609167 350.458749C 300.716142 350.006162 300.828464 349.636371 300.946137 349.349365C 301.063809 349.062359 301.234966 348.676010 301.459615 348.190307C 301.684262 347.704605 301.839374 347.362410 301.924954 347.163713C 302.203089 346.501391 302.705865 346.170235 303.433295 346.170235Z " jitters:vertexInfo="! !] [!] [! !] [!] [! !] [!] [! !] [!] [! ! ! ! ! ! ! !] [!] [! !] [!] [! !] [!] [! !] [!] [! ! ! ! ! ! !] [!] [!] [! ! ! ! ! ! !] [!] [!] [!] [! ! ! !] [!] [! !] [!] [! !] [!] [!] [!] [!] [! ! ! !] [!] [! !] [!] [! ! !] [!] [!] [!] [! ! !] [!] [! !] [!] [! ! ! ! !] [! !] [! !] [!] [!] [!] [! !] [! !] [! !] [!] [! !] [!] [! ! !] [!] [!] [!] [! ! !] [!] [! !] [!] [! !] [!] [!] [!] [!] [!] [! !] [! !] [! !] [!] [! !] [!] [!] [!] [!] [!] [!] [!] [! !] [! ! ! !] [!] [!] [! !] [!] [! ! !] [!] [!] [!] [! !] [!] [!] [!] [! ! ! !] [!] [!] [!] [! ! ! ! ! !] [!] [!] [! ! ! ! ! ! !] [!] [!] [!] [! ! ! !] [!] [! !] [!] [! !] [!] [!] [!] [!] [!" fill="#fff" fill-opacity="1" stroke-width="7.34983968734741" stroke-linecap="butt" stroke-linejoin="miter" stroke-miterlimit="4" stroke-dasharray="" stroke-dashoffset="0" stroke="none"/>
            <path d="M 246.925829 345.798450 L 278.401307 345.798451 C 279.019385 345.798451 279.560195 346.029647 280.023754 346.492047C 280.487313 346.954446 280.719089 347.520477 280.719089 348.190158C 280.719089 348.859840 280.487313 349.433844 280.023754 349.912187C 279.560195 350.390531 279.019385 350.629699 278.401307 350.629699L 265.004527 350.629698 L 265.004527 364.788604 L 278.401306 364.788604 C 279.019384 364.788604 279.560194 365.019801 280.023753 365.482200C 280.487312 365.944599 280.719088 366.510631 280.719088 367.180311C 280.719088 367.849993 280.487312 368.423997 280.023753 368.902341C 279.560194 369.380684 279.019384 369.619853 278.401306 369.619853L 246.925828 369.619852 C 246.276846 369.619852 245.720583 369.380683 245.257025 368.902339C 244.793466 368.423995 244.561690 367.849991 244.561690 367.180310C 244.561691 366.510629 244.793466 365.944597 245.257025 365.482198C 245.720584 365.019799 246.276846 364.788603 246.925828 364.788603L 260.322607 364.788604 L 260.322608 350.629698 L 246.925829 350.629698 C 246.276846 350.629698 245.720584 350.390530 245.257026 349.912186C 244.793467 349.433842 244.561691 348.859838 244.561691 348.190156C 244.561691 347.520476 244.793467 346.954444 245.257026 346.492045C 245.720585 346.029646 246.276847 345.798450 246.925829 345.798450Z " jitters:vertexInfo="! !] [!] [!] [!] [! ! ! !] [!] [!] [!] [! !] [!] [!] [!] [! ! ! !] [!] [!] [!] [!" fill="#fff" fill-opacity="1" stroke-width="7.34983968734741" stroke-linecap="butt" stroke-linejoin="miter" stroke-miterlimit="4" stroke-dasharray="" stroke-dashoffset="0" stroke="none"/>
        </g>
    </g>
</svg>
